M48
;DRILL file {KiCad (5.0.2)-1} date 31.03.2019 11:50:47
;FORMAT={-:-/ absolute / metric / decimal}
FMAT,2
METRIC,TZ
T1C0.200
T2C0.400
T3C1.000
T4C1.300
T5C2.500
%
G90
G05
T1
X107.545Y-67.2
X107.545Y-68.5
X107.545Y-69.8
X109.455Y-67.2
X109.455Y-68.5
X109.455Y-69.8
X107.545Y-56.7
X107.545Y-58.
X107.545Y-59.3
X109.455Y-56.7
X109.455Y-58.
X109.455Y-59.3
X107.545Y-77.7
X107.545Y-79.
X107.545Y-80.3
X109.455Y-77.7
X109.455Y-79.
X109.455Y-80.3
X107.545Y-87.7
X107.545Y-89.
X107.545Y-90.3
X109.455Y-87.7
X109.455Y-89.
X109.455Y-90.3
T2
X101.5Y-84.5
X101.5Y-86.
X101.5Y-87.5
X101.5Y-89.
X102.5Y-58.5
X102.5Y-59.75
X102.5Y-61.
X104.475Y-79.5
X105.Y-73.5
X106.25Y-52.25
X107.5Y-52.25
X108.75Y-52.25
X111.25Y-61.
X111.25Y-71.5
X111.25Y-82.
X111.25Y-91.6
X113.5Y-60.
X113.5Y-70.5
X113.5Y-81.
X113.5Y-91.05
X130.75Y-60.25
T3
X114.Y-52.575
X114.Y-63.
X114.Y-73.5
X114.Y-84.
X120.Y-90.5
X120.5Y-59.5
X120.5Y-70.
X120.5Y-77.75
X120.5Y-80.5
X130.5Y-64.
X131.25Y-85.
X135.75Y-53.5
X130.25Y-70.5
X132.79Y-70.5
X101.5Y-66.92
X101.5Y-69.46
X101.5Y-72.
X101.5Y-74.54
X101.5Y-77.08
X130.21Y-91.25
X132.75Y-91.25
X130.25Y-55.5
X132.79Y-55.5
X130.25Y-74.25
X132.79Y-74.25
T4
X134.5Y-79.17
X134.5Y-84.25
X134.5Y-60.42
X134.5Y-65.5
T5
X136.75Y-90.25
X102.25Y-53.75
T0
M30
