G04 #@! TF.GenerationSoftware,KiCad,Pcbnew,(5.0.2)-1*
G04 #@! TF.CreationDate,2019-03-31T11:50:41+03:00*
G04 #@! TF.ProjectId,pwm_led_controller,70776d5f-6c65-4645-9f63-6f6e74726f6c,rev?*
G04 #@! TF.SameCoordinates,Original*
G04 #@! TF.FileFunction,Soldermask,Top*
G04 #@! TF.FilePolarity,Negative*
%FSLAX46Y46*%
G04 Gerber Fmt 4.6, Leading zero omitted, Abs format (unit mm)*
G04 Created by KiCad (PCBNEW (5.0.2)-1) date 31.03.2019 11:50:41*
%MOMM*%
%LPD*%
G01*
G04 APERTURE LIST*
%ADD10C,0.100000*%
G04 APERTURE END LIST*
D10*
G36*
X137493807Y-87797995D02*
X137493809Y-87797996D01*
X137493810Y-87797996D01*
X137957878Y-87990220D01*
X138375530Y-88269286D01*
X138730714Y-88624470D01*
X138776860Y-88693533D01*
X139009780Y-89042122D01*
X139168730Y-89425859D01*
X139202005Y-89506193D01*
X139300000Y-89998847D01*
X139300000Y-90501153D01*
X139219885Y-90903919D01*
X139202004Y-90993810D01*
X139095886Y-91250000D01*
X139009780Y-91457878D01*
X138730714Y-91875530D01*
X138375530Y-92230714D01*
X137957878Y-92509780D01*
X137493810Y-92702004D01*
X137493809Y-92702004D01*
X137493807Y-92702005D01*
X137001153Y-92800000D01*
X136498847Y-92800000D01*
X136006193Y-92702005D01*
X136006191Y-92702004D01*
X136006190Y-92702004D01*
X135542122Y-92509780D01*
X135124470Y-92230714D01*
X134769286Y-91875530D01*
X134490220Y-91457878D01*
X134404114Y-91250000D01*
X134297996Y-90993810D01*
X134280116Y-90903919D01*
X134200000Y-90501153D01*
X134200000Y-89998847D01*
X134297995Y-89506193D01*
X134331271Y-89425859D01*
X134490220Y-89042122D01*
X134723140Y-88693533D01*
X134769286Y-88624470D01*
X135124470Y-88269286D01*
X135542122Y-87990220D01*
X136006190Y-87797996D01*
X136006191Y-87797996D01*
X136006193Y-87797995D01*
X136498847Y-87700000D01*
X137001153Y-87700000D01*
X137493807Y-87797995D01*
X137493807Y-87797995D01*
G37*
G36*
X132926429Y-90363022D02*
X133096081Y-90414486D01*
X133252434Y-90498058D01*
X133389475Y-90610525D01*
X133501942Y-90747566D01*
X133585514Y-90903919D01*
X133636978Y-91073571D01*
X133654355Y-91250000D01*
X133636978Y-91426429D01*
X133585514Y-91596081D01*
X133501942Y-91752434D01*
X133389475Y-91889475D01*
X133252434Y-92001942D01*
X133096081Y-92085514D01*
X132926429Y-92136978D01*
X132794212Y-92150000D01*
X132705788Y-92150000D01*
X132573571Y-92136978D01*
X132403919Y-92085514D01*
X132247566Y-92001942D01*
X132110525Y-91889475D01*
X131998058Y-91752434D01*
X131914486Y-91596081D01*
X131863022Y-91426429D01*
X131845645Y-91250000D01*
X131863022Y-91073571D01*
X131914486Y-90903919D01*
X131998058Y-90747566D01*
X132110525Y-90610525D01*
X132247566Y-90498058D01*
X132403919Y-90414486D01*
X132573571Y-90363022D01*
X132705788Y-90350000D01*
X132794212Y-90350000D01*
X132926429Y-90363022D01*
X132926429Y-90363022D01*
G37*
G36*
X131110000Y-92150000D02*
X129310000Y-92150000D01*
X129310000Y-90350000D01*
X131110000Y-90350000D01*
X131110000Y-92150000D01*
X131110000Y-92150000D01*
G37*
G36*
X111899293Y-90557877D02*
X111922651Y-90564962D01*
X111944175Y-90576467D01*
X111963046Y-90591954D01*
X111978533Y-90610825D01*
X111990038Y-90632349D01*
X111997123Y-90655707D01*
X112000000Y-90684917D01*
X112000000Y-91125083D01*
X111997123Y-91154293D01*
X111990038Y-91177651D01*
X111978533Y-91199175D01*
X111963046Y-91218046D01*
X111944175Y-91233533D01*
X111922651Y-91245038D01*
X111899293Y-91252123D01*
X111870083Y-91255000D01*
X110429917Y-91255000D01*
X110400707Y-91252123D01*
X110377349Y-91245038D01*
X110355825Y-91233533D01*
X110336954Y-91218046D01*
X110321467Y-91199175D01*
X110309962Y-91177651D01*
X110302877Y-91154293D01*
X110300000Y-91125083D01*
X110300000Y-90684917D01*
X110302877Y-90655707D01*
X110309962Y-90632349D01*
X110321467Y-90610825D01*
X110336954Y-90591954D01*
X110355825Y-90576467D01*
X110377349Y-90564962D01*
X110400707Y-90557877D01*
X110429917Y-90555000D01*
X111870083Y-90555000D01*
X111899293Y-90557877D01*
X111899293Y-90557877D01*
G37*
G36*
X106599293Y-90557877D02*
X106622651Y-90564962D01*
X106644175Y-90576467D01*
X106663046Y-90591954D01*
X106678533Y-90610825D01*
X106690038Y-90632349D01*
X106697123Y-90655707D01*
X106700000Y-90684917D01*
X106700000Y-91125083D01*
X106697123Y-91154293D01*
X106690038Y-91177651D01*
X106678533Y-91199175D01*
X106663046Y-91218046D01*
X106644175Y-91233533D01*
X106622651Y-91245038D01*
X106599293Y-91252123D01*
X106570083Y-91255000D01*
X105129917Y-91255000D01*
X105100707Y-91252123D01*
X105077349Y-91245038D01*
X105055825Y-91233533D01*
X105036954Y-91218046D01*
X105021467Y-91199175D01*
X105009962Y-91177651D01*
X105002877Y-91154293D01*
X105000000Y-91125083D01*
X105000000Y-90684917D01*
X105002877Y-90655707D01*
X105009962Y-90632349D01*
X105021467Y-90610825D01*
X105036954Y-90591954D01*
X105055825Y-90576467D01*
X105077349Y-90564962D01*
X105100707Y-90557877D01*
X105129917Y-90555000D01*
X106570083Y-90555000D01*
X106599293Y-90557877D01*
X106599293Y-90557877D01*
G37*
G36*
X109609120Y-87403954D02*
X109643007Y-87414234D01*
X109674237Y-87430927D01*
X109701609Y-87453391D01*
X109724073Y-87480763D01*
X109740766Y-87511993D01*
X109751046Y-87545880D01*
X109755000Y-87586027D01*
X109755000Y-90413973D01*
X109751046Y-90454120D01*
X109740766Y-90488007D01*
X109724073Y-90519237D01*
X109701609Y-90546609D01*
X109674237Y-90569073D01*
X109643007Y-90585766D01*
X109609120Y-90596046D01*
X109568973Y-90600000D01*
X107431027Y-90600000D01*
X107390880Y-90596046D01*
X107356993Y-90585766D01*
X107325763Y-90569073D01*
X107298391Y-90546609D01*
X107275927Y-90519237D01*
X107259234Y-90488007D01*
X107248954Y-90454120D01*
X107245000Y-90413973D01*
X107245000Y-87586027D01*
X107248954Y-87545880D01*
X107259234Y-87511993D01*
X107275927Y-87480763D01*
X107298391Y-87453391D01*
X107325763Y-87430927D01*
X107356993Y-87414234D01*
X107390880Y-87403954D01*
X107431027Y-87400000D01*
X109568973Y-87400000D01*
X109609120Y-87403954D01*
X109609120Y-87403954D01*
G37*
G36*
X128900000Y-90200000D02*
X124000000Y-90200000D01*
X124000000Y-85300000D01*
X128900000Y-85300000D01*
X128900000Y-90200000D01*
X128900000Y-90200000D01*
G37*
G36*
X118000000Y-90200000D02*
X113100000Y-90200000D01*
X113100000Y-85300000D01*
X118000000Y-85300000D01*
X118000000Y-90200000D01*
X118000000Y-90200000D01*
G37*
G36*
X106599293Y-89287877D02*
X106622651Y-89294962D01*
X106644175Y-89306467D01*
X106663046Y-89321954D01*
X106678533Y-89340825D01*
X106690038Y-89362349D01*
X106697123Y-89385707D01*
X106700000Y-89414917D01*
X106700000Y-89855083D01*
X106697123Y-89884293D01*
X106690038Y-89907651D01*
X106678533Y-89929175D01*
X106663046Y-89948046D01*
X106644175Y-89963533D01*
X106622651Y-89975038D01*
X106599293Y-89982123D01*
X106570083Y-89985000D01*
X105129917Y-89985000D01*
X105100707Y-89982123D01*
X105077349Y-89975038D01*
X105055825Y-89963533D01*
X105036954Y-89948046D01*
X105021467Y-89929175D01*
X105009962Y-89907651D01*
X105002877Y-89884293D01*
X105000000Y-89855083D01*
X105000000Y-89414917D01*
X105002877Y-89385707D01*
X105009962Y-89362349D01*
X105021467Y-89340825D01*
X105036954Y-89321954D01*
X105055825Y-89306467D01*
X105077349Y-89294962D01*
X105100707Y-89287877D01*
X105129917Y-89285000D01*
X106570083Y-89285000D01*
X106599293Y-89287877D01*
X106599293Y-89287877D01*
G37*
G36*
X111899293Y-89287877D02*
X111922651Y-89294962D01*
X111944175Y-89306467D01*
X111963046Y-89321954D01*
X111978533Y-89340825D01*
X111990038Y-89362349D01*
X111997123Y-89385707D01*
X112000000Y-89414917D01*
X112000000Y-89855083D01*
X111997123Y-89884293D01*
X111990038Y-89907651D01*
X111978533Y-89929175D01*
X111963046Y-89948046D01*
X111944175Y-89963533D01*
X111922651Y-89975038D01*
X111899293Y-89982123D01*
X111870083Y-89985000D01*
X110429917Y-89985000D01*
X110400707Y-89982123D01*
X110377349Y-89975038D01*
X110355825Y-89963533D01*
X110336954Y-89948046D01*
X110321467Y-89929175D01*
X110309962Y-89907651D01*
X110302877Y-89884293D01*
X110300000Y-89855083D01*
X110300000Y-89414917D01*
X110302877Y-89385707D01*
X110309962Y-89362349D01*
X110321467Y-89340825D01*
X110336954Y-89321954D01*
X110355825Y-89306467D01*
X110377349Y-89294962D01*
X110400707Y-89287877D01*
X110429917Y-89285000D01*
X111870083Y-89285000D01*
X111899293Y-89287877D01*
X111899293Y-89287877D01*
G37*
G36*
X111899293Y-88017877D02*
X111922651Y-88024962D01*
X111944175Y-88036467D01*
X111963046Y-88051954D01*
X111978533Y-88070825D01*
X111990038Y-88092349D01*
X111997123Y-88115707D01*
X112000000Y-88144917D01*
X112000000Y-88585083D01*
X111997123Y-88614293D01*
X111990038Y-88637651D01*
X111978533Y-88659175D01*
X111963046Y-88678046D01*
X111944175Y-88693533D01*
X111922651Y-88705038D01*
X111899293Y-88712123D01*
X111870083Y-88715000D01*
X110429917Y-88715000D01*
X110400707Y-88712123D01*
X110377349Y-88705038D01*
X110355825Y-88693533D01*
X110336954Y-88678046D01*
X110321467Y-88659175D01*
X110309962Y-88637651D01*
X110302877Y-88614293D01*
X110300000Y-88585083D01*
X110300000Y-88144917D01*
X110302877Y-88115707D01*
X110309962Y-88092349D01*
X110321467Y-88070825D01*
X110336954Y-88051954D01*
X110355825Y-88036467D01*
X110377349Y-88024962D01*
X110400707Y-88017877D01*
X110429917Y-88015000D01*
X111870083Y-88015000D01*
X111899293Y-88017877D01*
X111899293Y-88017877D01*
G37*
G36*
X106599293Y-88017877D02*
X106622651Y-88024962D01*
X106644175Y-88036467D01*
X106663046Y-88051954D01*
X106678533Y-88070825D01*
X106690038Y-88092349D01*
X106697123Y-88115707D01*
X106700000Y-88144917D01*
X106700000Y-88585083D01*
X106697123Y-88614293D01*
X106690038Y-88637651D01*
X106678533Y-88659175D01*
X106663046Y-88678046D01*
X106644175Y-88693533D01*
X106622651Y-88705038D01*
X106599293Y-88712123D01*
X106570083Y-88715000D01*
X105129917Y-88715000D01*
X105100707Y-88712123D01*
X105077349Y-88705038D01*
X105055825Y-88693533D01*
X105036954Y-88678046D01*
X105021467Y-88659175D01*
X105009962Y-88637651D01*
X105002877Y-88614293D01*
X105000000Y-88585083D01*
X105000000Y-88144917D01*
X105002877Y-88115707D01*
X105009962Y-88092349D01*
X105021467Y-88070825D01*
X105036954Y-88051954D01*
X105055825Y-88036467D01*
X105077349Y-88024962D01*
X105100707Y-88017877D01*
X105129917Y-88015000D01*
X106570083Y-88015000D01*
X106599293Y-88017877D01*
X106599293Y-88017877D01*
G37*
G36*
X111899293Y-86747877D02*
X111922651Y-86754962D01*
X111944175Y-86766467D01*
X111963046Y-86781954D01*
X111978533Y-86800825D01*
X111990038Y-86822349D01*
X111997123Y-86845707D01*
X112000000Y-86874917D01*
X112000000Y-87315083D01*
X111997123Y-87344293D01*
X111990038Y-87367651D01*
X111978533Y-87389175D01*
X111963046Y-87408046D01*
X111944175Y-87423533D01*
X111922651Y-87435038D01*
X111899293Y-87442123D01*
X111870083Y-87445000D01*
X110429917Y-87445000D01*
X110400707Y-87442123D01*
X110377349Y-87435038D01*
X110355825Y-87423533D01*
X110336954Y-87408046D01*
X110321467Y-87389175D01*
X110309962Y-87367651D01*
X110302877Y-87344293D01*
X110300000Y-87315083D01*
X110300000Y-86874917D01*
X110302877Y-86845707D01*
X110309962Y-86822349D01*
X110321467Y-86800825D01*
X110336954Y-86781954D01*
X110355825Y-86766467D01*
X110377349Y-86754962D01*
X110400707Y-86747877D01*
X110429917Y-86745000D01*
X111870083Y-86745000D01*
X111899293Y-86747877D01*
X111899293Y-86747877D01*
G37*
G36*
X106599293Y-86747877D02*
X106622651Y-86754962D01*
X106644175Y-86766467D01*
X106663046Y-86781954D01*
X106678533Y-86800825D01*
X106690038Y-86822349D01*
X106697123Y-86845707D01*
X106700000Y-86874917D01*
X106700000Y-87315083D01*
X106697123Y-87344293D01*
X106690038Y-87367651D01*
X106678533Y-87389175D01*
X106663046Y-87408046D01*
X106644175Y-87423533D01*
X106622651Y-87435038D01*
X106599293Y-87442123D01*
X106570083Y-87445000D01*
X105129917Y-87445000D01*
X105100707Y-87442123D01*
X105077349Y-87435038D01*
X105055825Y-87423533D01*
X105036954Y-87408046D01*
X105021467Y-87389175D01*
X105009962Y-87367651D01*
X105002877Y-87344293D01*
X105000000Y-87315083D01*
X105000000Y-86874917D01*
X105002877Y-86845707D01*
X105009962Y-86822349D01*
X105021467Y-86800825D01*
X105036954Y-86781954D01*
X105055825Y-86766467D01*
X105077349Y-86754962D01*
X105100707Y-86747877D01*
X105129917Y-86745000D01*
X106570083Y-86745000D01*
X106599293Y-86747877D01*
X106599293Y-86747877D01*
G37*
G36*
X135850000Y-85600000D02*
X133150000Y-85600000D01*
X133150000Y-82900000D01*
X135850000Y-82900000D01*
X135850000Y-85600000D01*
X135850000Y-85600000D01*
G37*
G36*
X111899293Y-80557877D02*
X111922651Y-80564962D01*
X111944175Y-80576467D01*
X111963046Y-80591954D01*
X111978533Y-80610825D01*
X111990038Y-80632349D01*
X111997123Y-80655707D01*
X112000000Y-80684917D01*
X112000000Y-81125083D01*
X111997123Y-81154293D01*
X111990038Y-81177651D01*
X111978533Y-81199175D01*
X111963046Y-81218046D01*
X111944175Y-81233533D01*
X111922651Y-81245038D01*
X111899293Y-81252123D01*
X111870083Y-81255000D01*
X110429917Y-81255000D01*
X110400707Y-81252123D01*
X110377349Y-81245038D01*
X110355825Y-81233533D01*
X110336954Y-81218046D01*
X110321467Y-81199175D01*
X110309962Y-81177651D01*
X110302877Y-81154293D01*
X110300000Y-81125083D01*
X110300000Y-80684917D01*
X110302877Y-80655707D01*
X110309962Y-80632349D01*
X110321467Y-80610825D01*
X110336954Y-80591954D01*
X110355825Y-80576467D01*
X110377349Y-80564962D01*
X110400707Y-80557877D01*
X110429917Y-80555000D01*
X111870083Y-80555000D01*
X111899293Y-80557877D01*
X111899293Y-80557877D01*
G37*
G36*
X106599293Y-80557877D02*
X106622651Y-80564962D01*
X106644175Y-80576467D01*
X106663046Y-80591954D01*
X106678533Y-80610825D01*
X106690038Y-80632349D01*
X106697123Y-80655707D01*
X106700000Y-80684917D01*
X106700000Y-81125083D01*
X106697123Y-81154293D01*
X106690038Y-81177651D01*
X106678533Y-81199175D01*
X106663046Y-81218046D01*
X106644175Y-81233533D01*
X106622651Y-81245038D01*
X106599293Y-81252123D01*
X106570083Y-81255000D01*
X105129917Y-81255000D01*
X105100707Y-81252123D01*
X105077349Y-81245038D01*
X105055825Y-81233533D01*
X105036954Y-81218046D01*
X105021467Y-81199175D01*
X105009962Y-81177651D01*
X105002877Y-81154293D01*
X105000000Y-81125083D01*
X105000000Y-80684917D01*
X105002877Y-80655707D01*
X105009962Y-80632349D01*
X105021467Y-80610825D01*
X105036954Y-80591954D01*
X105055825Y-80576467D01*
X105077349Y-80564962D01*
X105100707Y-80557877D01*
X105129917Y-80555000D01*
X106570083Y-80555000D01*
X106599293Y-80557877D01*
X106599293Y-80557877D01*
G37*
G36*
X109609120Y-77403954D02*
X109643007Y-77414234D01*
X109674237Y-77430927D01*
X109701609Y-77453391D01*
X109724073Y-77480763D01*
X109740766Y-77511993D01*
X109751046Y-77545880D01*
X109755000Y-77586027D01*
X109755000Y-80413973D01*
X109751046Y-80454120D01*
X109740766Y-80488007D01*
X109724073Y-80519237D01*
X109701609Y-80546609D01*
X109674237Y-80569073D01*
X109643007Y-80585766D01*
X109609120Y-80596046D01*
X109568973Y-80600000D01*
X107431027Y-80600000D01*
X107390880Y-80596046D01*
X107356993Y-80585766D01*
X107325763Y-80569073D01*
X107298391Y-80546609D01*
X107275927Y-80519237D01*
X107259234Y-80488007D01*
X107248954Y-80454120D01*
X107245000Y-80413973D01*
X107245000Y-77586027D01*
X107248954Y-77545880D01*
X107259234Y-77511993D01*
X107275927Y-77480763D01*
X107298391Y-77453391D01*
X107325763Y-77430927D01*
X107356993Y-77414234D01*
X107390880Y-77403954D01*
X107431027Y-77400000D01*
X109568973Y-77400000D01*
X109609120Y-77403954D01*
X109609120Y-77403954D01*
G37*
G36*
X134893778Y-77871879D02*
X135139465Y-77973646D01*
X135360573Y-78121385D01*
X135548615Y-78309427D01*
X135696354Y-78530535D01*
X135798121Y-78776222D01*
X135850000Y-79037034D01*
X135850000Y-79302966D01*
X135798121Y-79563778D01*
X135696354Y-79809465D01*
X135548615Y-80030573D01*
X135360573Y-80218615D01*
X135139465Y-80366354D01*
X134893778Y-80468121D01*
X134632966Y-80520000D01*
X134367034Y-80520000D01*
X134106222Y-80468121D01*
X133860535Y-80366354D01*
X133639427Y-80218615D01*
X133451385Y-80030573D01*
X133303646Y-79809465D01*
X133201879Y-79563778D01*
X133150000Y-79302966D01*
X133150000Y-79037034D01*
X133201879Y-78776222D01*
X133303646Y-78530535D01*
X133451385Y-78309427D01*
X133639427Y-78121385D01*
X133860535Y-77973646D01*
X134106222Y-77871879D01*
X134367034Y-77820000D01*
X134632966Y-77820000D01*
X134893778Y-77871879D01*
X134893778Y-77871879D01*
G37*
G36*
X111899293Y-79287877D02*
X111922651Y-79294962D01*
X111944175Y-79306467D01*
X111963046Y-79321954D01*
X111978533Y-79340825D01*
X111990038Y-79362349D01*
X111997123Y-79385707D01*
X112000000Y-79414917D01*
X112000000Y-79855083D01*
X111997123Y-79884293D01*
X111990038Y-79907651D01*
X111978533Y-79929175D01*
X111963046Y-79948046D01*
X111944175Y-79963533D01*
X111922651Y-79975038D01*
X111899293Y-79982123D01*
X111870083Y-79985000D01*
X110429917Y-79985000D01*
X110400707Y-79982123D01*
X110377349Y-79975038D01*
X110355825Y-79963533D01*
X110336954Y-79948046D01*
X110321467Y-79929175D01*
X110309962Y-79907651D01*
X110302877Y-79884293D01*
X110300000Y-79855083D01*
X110300000Y-79414917D01*
X110302877Y-79385707D01*
X110309962Y-79362349D01*
X110321467Y-79340825D01*
X110336954Y-79321954D01*
X110355825Y-79306467D01*
X110377349Y-79294962D01*
X110400707Y-79287877D01*
X110429917Y-79285000D01*
X111870083Y-79285000D01*
X111899293Y-79287877D01*
X111899293Y-79287877D01*
G37*
G36*
X106599293Y-79287877D02*
X106622651Y-79294962D01*
X106644175Y-79306467D01*
X106663046Y-79321954D01*
X106678533Y-79340825D01*
X106690038Y-79362349D01*
X106697123Y-79385707D01*
X106700000Y-79414917D01*
X106700000Y-79855083D01*
X106697123Y-79884293D01*
X106690038Y-79907651D01*
X106678533Y-79929175D01*
X106663046Y-79948046D01*
X106644175Y-79963533D01*
X106622651Y-79975038D01*
X106599293Y-79982123D01*
X106570083Y-79985000D01*
X105129917Y-79985000D01*
X105100707Y-79982123D01*
X105077349Y-79975038D01*
X105055825Y-79963533D01*
X105036954Y-79948046D01*
X105021467Y-79929175D01*
X105009962Y-79907651D01*
X105002877Y-79884293D01*
X105000000Y-79855083D01*
X105000000Y-79414917D01*
X105002877Y-79385707D01*
X105009962Y-79362349D01*
X105021467Y-79340825D01*
X105036954Y-79321954D01*
X105055825Y-79306467D01*
X105077349Y-79294962D01*
X105100707Y-79287877D01*
X105129917Y-79285000D01*
X106570083Y-79285000D01*
X106599293Y-79287877D01*
X106599293Y-79287877D01*
G37*
G36*
X118000000Y-79700000D02*
X113100000Y-79700000D01*
X113100000Y-74800000D01*
X118000000Y-74800000D01*
X118000000Y-79700000D01*
X118000000Y-79700000D01*
G37*
G36*
X128900000Y-79700000D02*
X124000000Y-79700000D01*
X124000000Y-74800000D01*
X128900000Y-74800000D01*
X128900000Y-79700000D01*
X128900000Y-79700000D01*
G37*
G36*
X106599293Y-78017877D02*
X106622651Y-78024962D01*
X106644175Y-78036467D01*
X106663046Y-78051954D01*
X106678533Y-78070825D01*
X106690038Y-78092349D01*
X106697123Y-78115707D01*
X106700000Y-78144917D01*
X106700000Y-78585083D01*
X106697123Y-78614293D01*
X106690038Y-78637651D01*
X106678533Y-78659175D01*
X106663046Y-78678046D01*
X106644175Y-78693533D01*
X106622651Y-78705038D01*
X106599293Y-78712123D01*
X106570083Y-78715000D01*
X105129917Y-78715000D01*
X105100707Y-78712123D01*
X105077349Y-78705038D01*
X105055825Y-78693533D01*
X105036954Y-78678046D01*
X105021467Y-78659175D01*
X105009962Y-78637651D01*
X105002877Y-78614293D01*
X105000000Y-78585083D01*
X105000000Y-78144917D01*
X105002877Y-78115707D01*
X105009962Y-78092349D01*
X105021467Y-78070825D01*
X105036954Y-78051954D01*
X105055825Y-78036467D01*
X105077349Y-78024962D01*
X105100707Y-78017877D01*
X105129917Y-78015000D01*
X106570083Y-78015000D01*
X106599293Y-78017877D01*
X106599293Y-78017877D01*
G37*
G36*
X111899293Y-78017877D02*
X111922651Y-78024962D01*
X111944175Y-78036467D01*
X111963046Y-78051954D01*
X111978533Y-78070825D01*
X111990038Y-78092349D01*
X111997123Y-78115707D01*
X112000000Y-78144917D01*
X112000000Y-78585083D01*
X111997123Y-78614293D01*
X111990038Y-78637651D01*
X111978533Y-78659175D01*
X111963046Y-78678046D01*
X111944175Y-78693533D01*
X111922651Y-78705038D01*
X111899293Y-78712123D01*
X111870083Y-78715000D01*
X110429917Y-78715000D01*
X110400707Y-78712123D01*
X110377349Y-78705038D01*
X110355825Y-78693533D01*
X110336954Y-78678046D01*
X110321467Y-78659175D01*
X110309962Y-78637651D01*
X110302877Y-78614293D01*
X110300000Y-78585083D01*
X110300000Y-78144917D01*
X110302877Y-78115707D01*
X110309962Y-78092349D01*
X110321467Y-78070825D01*
X110336954Y-78051954D01*
X110355825Y-78036467D01*
X110377349Y-78024962D01*
X110400707Y-78017877D01*
X110429917Y-78015000D01*
X111870083Y-78015000D01*
X111899293Y-78017877D01*
X111899293Y-78017877D01*
G37*
G36*
X101676429Y-76193022D02*
X101846081Y-76244486D01*
X102002434Y-76328058D01*
X102139475Y-76440525D01*
X102251942Y-76577566D01*
X102335514Y-76733919D01*
X102386978Y-76903571D01*
X102404355Y-77080000D01*
X102386978Y-77256429D01*
X102335514Y-77426081D01*
X102251942Y-77582434D01*
X102139475Y-77719475D01*
X102002434Y-77831942D01*
X101846081Y-77915514D01*
X101676429Y-77966978D01*
X101544212Y-77980000D01*
X101455788Y-77980000D01*
X101323571Y-77966978D01*
X101153919Y-77915514D01*
X100997566Y-77831942D01*
X100860525Y-77719475D01*
X100748058Y-77582434D01*
X100664486Y-77426081D01*
X100613022Y-77256429D01*
X100595645Y-77080000D01*
X100613022Y-76903571D01*
X100664486Y-76733919D01*
X100748058Y-76577566D01*
X100860525Y-76440525D01*
X100997566Y-76328058D01*
X101153919Y-76244486D01*
X101323571Y-76193022D01*
X101455788Y-76180000D01*
X101544212Y-76180000D01*
X101676429Y-76193022D01*
X101676429Y-76193022D01*
G37*
G36*
X111899293Y-76747877D02*
X111922651Y-76754962D01*
X111944175Y-76766467D01*
X111963046Y-76781954D01*
X111978533Y-76800825D01*
X111990038Y-76822349D01*
X111997123Y-76845707D01*
X112000000Y-76874917D01*
X112000000Y-77315083D01*
X111997123Y-77344293D01*
X111990038Y-77367651D01*
X111978533Y-77389175D01*
X111963046Y-77408046D01*
X111944175Y-77423533D01*
X111922651Y-77435038D01*
X111899293Y-77442123D01*
X111870083Y-77445000D01*
X110429917Y-77445000D01*
X110400707Y-77442123D01*
X110377349Y-77435038D01*
X110355825Y-77423533D01*
X110336954Y-77408046D01*
X110321467Y-77389175D01*
X110309962Y-77367651D01*
X110302877Y-77344293D01*
X110300000Y-77315083D01*
X110300000Y-76874917D01*
X110302877Y-76845707D01*
X110309962Y-76822349D01*
X110321467Y-76800825D01*
X110336954Y-76781954D01*
X110355825Y-76766467D01*
X110377349Y-76754962D01*
X110400707Y-76747877D01*
X110429917Y-76745000D01*
X111870083Y-76745000D01*
X111899293Y-76747877D01*
X111899293Y-76747877D01*
G37*
G36*
X106599293Y-76747877D02*
X106622651Y-76754962D01*
X106644175Y-76766467D01*
X106663046Y-76781954D01*
X106678533Y-76800825D01*
X106690038Y-76822349D01*
X106697123Y-76845707D01*
X106700000Y-76874917D01*
X106700000Y-77315083D01*
X106697123Y-77344293D01*
X106690038Y-77367651D01*
X106678533Y-77389175D01*
X106663046Y-77408046D01*
X106644175Y-77423533D01*
X106622651Y-77435038D01*
X106599293Y-77442123D01*
X106570083Y-77445000D01*
X105129917Y-77445000D01*
X105100707Y-77442123D01*
X105077349Y-77435038D01*
X105055825Y-77423533D01*
X105036954Y-77408046D01*
X105021467Y-77389175D01*
X105009962Y-77367651D01*
X105002877Y-77344293D01*
X105000000Y-77315083D01*
X105000000Y-76874917D01*
X105002877Y-76845707D01*
X105009962Y-76822349D01*
X105021467Y-76800825D01*
X105036954Y-76781954D01*
X105055825Y-76766467D01*
X105077349Y-76754962D01*
X105100707Y-76747877D01*
X105129917Y-76745000D01*
X106570083Y-76745000D01*
X106599293Y-76747877D01*
X106599293Y-76747877D01*
G37*
G36*
X101676429Y-73653022D02*
X101846081Y-73704486D01*
X102002434Y-73788058D01*
X102139475Y-73900525D01*
X102251942Y-74037566D01*
X102335514Y-74193919D01*
X102386978Y-74363571D01*
X102404355Y-74540000D01*
X102386978Y-74716429D01*
X102335514Y-74886081D01*
X102251942Y-75042434D01*
X102139475Y-75179475D01*
X102002434Y-75291942D01*
X101846081Y-75375514D01*
X101676429Y-75426978D01*
X101544212Y-75440000D01*
X101455788Y-75440000D01*
X101323571Y-75426978D01*
X101153919Y-75375514D01*
X100997566Y-75291942D01*
X100860525Y-75179475D01*
X100748058Y-75042434D01*
X100664486Y-74886081D01*
X100613022Y-74716429D01*
X100595645Y-74540000D01*
X100613022Y-74363571D01*
X100664486Y-74193919D01*
X100748058Y-74037566D01*
X100860525Y-73900525D01*
X100997566Y-73788058D01*
X101153919Y-73704486D01*
X101323571Y-73653022D01*
X101455788Y-73640000D01*
X101544212Y-73640000D01*
X101676429Y-73653022D01*
X101676429Y-73653022D01*
G37*
G36*
X131150000Y-75150000D02*
X129350000Y-75150000D01*
X129350000Y-73350000D01*
X131150000Y-73350000D01*
X131150000Y-75150000D01*
X131150000Y-75150000D01*
G37*
G36*
X132966429Y-73363022D02*
X133136081Y-73414486D01*
X133292434Y-73498058D01*
X133429475Y-73610525D01*
X133541942Y-73747566D01*
X133625514Y-73903919D01*
X133676978Y-74073571D01*
X133694355Y-74250000D01*
X133676978Y-74426429D01*
X133625514Y-74596081D01*
X133541942Y-74752434D01*
X133429475Y-74889475D01*
X133292434Y-75001942D01*
X133136081Y-75085514D01*
X132966429Y-75136978D01*
X132834212Y-75150000D01*
X132745788Y-75150000D01*
X132613571Y-75136978D01*
X132443919Y-75085514D01*
X132287566Y-75001942D01*
X132150525Y-74889475D01*
X132038058Y-74752434D01*
X131954486Y-74596081D01*
X131903022Y-74426429D01*
X131885645Y-74250000D01*
X131903022Y-74073571D01*
X131954486Y-73903919D01*
X132038058Y-73747566D01*
X132150525Y-73610525D01*
X132287566Y-73498058D01*
X132443919Y-73414486D01*
X132613571Y-73363022D01*
X132745788Y-73350000D01*
X132834212Y-73350000D01*
X132966429Y-73363022D01*
X132966429Y-73363022D01*
G37*
G36*
X101676429Y-71113022D02*
X101846081Y-71164486D01*
X102002434Y-71248058D01*
X102139475Y-71360525D01*
X102251942Y-71497566D01*
X102335514Y-71653919D01*
X102386978Y-71823571D01*
X102404355Y-72000000D01*
X102386978Y-72176429D01*
X102335514Y-72346081D01*
X102251942Y-72502434D01*
X102139475Y-72639475D01*
X102002434Y-72751942D01*
X101846081Y-72835514D01*
X101676429Y-72886978D01*
X101544212Y-72900000D01*
X101455788Y-72900000D01*
X101323571Y-72886978D01*
X101153919Y-72835514D01*
X100997566Y-72751942D01*
X100860525Y-72639475D01*
X100748058Y-72502434D01*
X100664486Y-72346081D01*
X100613022Y-72176429D01*
X100595645Y-72000000D01*
X100613022Y-71823571D01*
X100664486Y-71653919D01*
X100748058Y-71497566D01*
X100860525Y-71360525D01*
X100997566Y-71248058D01*
X101153919Y-71164486D01*
X101323571Y-71113022D01*
X101455788Y-71100000D01*
X101544212Y-71100000D01*
X101676429Y-71113022D01*
X101676429Y-71113022D01*
G37*
G36*
X131150000Y-71400000D02*
X129350000Y-71400000D01*
X129350000Y-69600000D01*
X131150000Y-69600000D01*
X131150000Y-71400000D01*
X131150000Y-71400000D01*
G37*
G36*
X132966429Y-69613022D02*
X133136081Y-69664486D01*
X133292434Y-69748058D01*
X133429475Y-69860525D01*
X133541942Y-69997566D01*
X133625514Y-70153919D01*
X133676978Y-70323571D01*
X133694355Y-70500000D01*
X133676978Y-70676429D01*
X133625514Y-70846081D01*
X133541942Y-71002434D01*
X133429475Y-71139475D01*
X133292434Y-71251942D01*
X133136081Y-71335514D01*
X132966429Y-71386978D01*
X132834212Y-71400000D01*
X132745788Y-71400000D01*
X132613571Y-71386978D01*
X132443919Y-71335514D01*
X132287566Y-71251942D01*
X132150525Y-71139475D01*
X132038058Y-71002434D01*
X131954486Y-70846081D01*
X131903022Y-70676429D01*
X131885645Y-70500000D01*
X131903022Y-70323571D01*
X131954486Y-70153919D01*
X132038058Y-69997566D01*
X132150525Y-69860525D01*
X132287566Y-69748058D01*
X132443919Y-69664486D01*
X132613571Y-69613022D01*
X132745788Y-69600000D01*
X132834212Y-69600000D01*
X132966429Y-69613022D01*
X132966429Y-69613022D01*
G37*
G36*
X111899293Y-70057877D02*
X111922651Y-70064962D01*
X111944175Y-70076467D01*
X111963046Y-70091954D01*
X111978533Y-70110825D01*
X111990038Y-70132349D01*
X111997123Y-70155707D01*
X112000000Y-70184917D01*
X112000000Y-70625083D01*
X111997123Y-70654293D01*
X111990038Y-70677651D01*
X111978533Y-70699175D01*
X111963046Y-70718046D01*
X111944175Y-70733533D01*
X111922651Y-70745038D01*
X111899293Y-70752123D01*
X111870083Y-70755000D01*
X110429917Y-70755000D01*
X110400707Y-70752123D01*
X110377349Y-70745038D01*
X110355825Y-70733533D01*
X110336954Y-70718046D01*
X110321467Y-70699175D01*
X110309962Y-70677651D01*
X110302877Y-70654293D01*
X110300000Y-70625083D01*
X110300000Y-70184917D01*
X110302877Y-70155707D01*
X110309962Y-70132349D01*
X110321467Y-70110825D01*
X110336954Y-70091954D01*
X110355825Y-70076467D01*
X110377349Y-70064962D01*
X110400707Y-70057877D01*
X110429917Y-70055000D01*
X111870083Y-70055000D01*
X111899293Y-70057877D01*
X111899293Y-70057877D01*
G37*
G36*
X106599293Y-70057877D02*
X106622651Y-70064962D01*
X106644175Y-70076467D01*
X106663046Y-70091954D01*
X106678533Y-70110825D01*
X106690038Y-70132349D01*
X106697123Y-70155707D01*
X106700000Y-70184917D01*
X106700000Y-70625083D01*
X106697123Y-70654293D01*
X106690038Y-70677651D01*
X106678533Y-70699175D01*
X106663046Y-70718046D01*
X106644175Y-70733533D01*
X106622651Y-70745038D01*
X106599293Y-70752123D01*
X106570083Y-70755000D01*
X105129917Y-70755000D01*
X105100707Y-70752123D01*
X105077349Y-70745038D01*
X105055825Y-70733533D01*
X105036954Y-70718046D01*
X105021467Y-70699175D01*
X105009962Y-70677651D01*
X105002877Y-70654293D01*
X105000000Y-70625083D01*
X105000000Y-70184917D01*
X105002877Y-70155707D01*
X105009962Y-70132349D01*
X105021467Y-70110825D01*
X105036954Y-70091954D01*
X105055825Y-70076467D01*
X105077349Y-70064962D01*
X105100707Y-70057877D01*
X105129917Y-70055000D01*
X106570083Y-70055000D01*
X106599293Y-70057877D01*
X106599293Y-70057877D01*
G37*
G36*
X101676429Y-68573022D02*
X101846081Y-68624486D01*
X102002434Y-68708058D01*
X102139475Y-68820525D01*
X102251942Y-68957566D01*
X102335514Y-69113919D01*
X102386978Y-69283571D01*
X102404355Y-69460000D01*
X102386978Y-69636429D01*
X102335514Y-69806081D01*
X102251942Y-69962434D01*
X102139475Y-70099475D01*
X102002434Y-70211942D01*
X101846081Y-70295514D01*
X101676429Y-70346978D01*
X101544212Y-70360000D01*
X101455788Y-70360000D01*
X101323571Y-70346978D01*
X101153919Y-70295514D01*
X100997566Y-70211942D01*
X100860525Y-70099475D01*
X100748058Y-69962434D01*
X100664486Y-69806081D01*
X100613022Y-69636429D01*
X100595645Y-69460000D01*
X100613022Y-69283571D01*
X100664486Y-69113919D01*
X100748058Y-68957566D01*
X100860525Y-68820525D01*
X100997566Y-68708058D01*
X101153919Y-68624486D01*
X101323571Y-68573022D01*
X101455788Y-68560000D01*
X101544212Y-68560000D01*
X101676429Y-68573022D01*
X101676429Y-68573022D01*
G37*
G36*
X109609120Y-66903954D02*
X109643007Y-66914234D01*
X109674237Y-66930927D01*
X109701609Y-66953391D01*
X109724073Y-66980763D01*
X109740766Y-67011993D01*
X109751046Y-67045880D01*
X109755000Y-67086027D01*
X109755000Y-69913973D01*
X109751046Y-69954120D01*
X109740766Y-69988007D01*
X109724073Y-70019237D01*
X109701609Y-70046609D01*
X109674237Y-70069073D01*
X109643007Y-70085766D01*
X109609120Y-70096046D01*
X109568973Y-70100000D01*
X107431027Y-70100000D01*
X107390880Y-70096046D01*
X107356993Y-70085766D01*
X107325763Y-70069073D01*
X107298391Y-70046609D01*
X107275927Y-70019237D01*
X107259234Y-69988007D01*
X107248954Y-69954120D01*
X107245000Y-69913973D01*
X107245000Y-67086027D01*
X107248954Y-67045880D01*
X107259234Y-67011993D01*
X107275927Y-66980763D01*
X107298391Y-66953391D01*
X107325763Y-66930927D01*
X107356993Y-66914234D01*
X107390880Y-66903954D01*
X107431027Y-66900000D01*
X109568973Y-66900000D01*
X109609120Y-66903954D01*
X109609120Y-66903954D01*
G37*
G36*
X106599293Y-68787877D02*
X106622651Y-68794962D01*
X106644175Y-68806467D01*
X106663046Y-68821954D01*
X106678533Y-68840825D01*
X106690038Y-68862349D01*
X106697123Y-68885707D01*
X106700000Y-68914917D01*
X106700000Y-69355083D01*
X106697123Y-69384293D01*
X106690038Y-69407651D01*
X106678533Y-69429175D01*
X106663046Y-69448046D01*
X106644175Y-69463533D01*
X106622651Y-69475038D01*
X106599293Y-69482123D01*
X106570083Y-69485000D01*
X105129917Y-69485000D01*
X105100707Y-69482123D01*
X105077349Y-69475038D01*
X105055825Y-69463533D01*
X105036954Y-69448046D01*
X105021467Y-69429175D01*
X105009962Y-69407651D01*
X105002877Y-69384293D01*
X105000000Y-69355083D01*
X105000000Y-68914917D01*
X105002877Y-68885707D01*
X105009962Y-68862349D01*
X105021467Y-68840825D01*
X105036954Y-68821954D01*
X105055825Y-68806467D01*
X105077349Y-68794962D01*
X105100707Y-68787877D01*
X105129917Y-68785000D01*
X106570083Y-68785000D01*
X106599293Y-68787877D01*
X106599293Y-68787877D01*
G37*
G36*
X111899293Y-68787877D02*
X111922651Y-68794962D01*
X111944175Y-68806467D01*
X111963046Y-68821954D01*
X111978533Y-68840825D01*
X111990038Y-68862349D01*
X111997123Y-68885707D01*
X112000000Y-68914917D01*
X112000000Y-69355083D01*
X111997123Y-69384293D01*
X111990038Y-69407651D01*
X111978533Y-69429175D01*
X111963046Y-69448046D01*
X111944175Y-69463533D01*
X111922651Y-69475038D01*
X111899293Y-69482123D01*
X111870083Y-69485000D01*
X110429917Y-69485000D01*
X110400707Y-69482123D01*
X110377349Y-69475038D01*
X110355825Y-69463533D01*
X110336954Y-69448046D01*
X110321467Y-69429175D01*
X110309962Y-69407651D01*
X110302877Y-69384293D01*
X110300000Y-69355083D01*
X110300000Y-68914917D01*
X110302877Y-68885707D01*
X110309962Y-68862349D01*
X110321467Y-68840825D01*
X110336954Y-68821954D01*
X110355825Y-68806467D01*
X110377349Y-68794962D01*
X110400707Y-68787877D01*
X110429917Y-68785000D01*
X111870083Y-68785000D01*
X111899293Y-68787877D01*
X111899293Y-68787877D01*
G37*
G36*
X128900000Y-69200000D02*
X124000000Y-69200000D01*
X124000000Y-64300000D01*
X128900000Y-64300000D01*
X128900000Y-69200000D01*
X128900000Y-69200000D01*
G37*
G36*
X118000000Y-69200000D02*
X113100000Y-69200000D01*
X113100000Y-64300000D01*
X118000000Y-64300000D01*
X118000000Y-69200000D01*
X118000000Y-69200000D01*
G37*
G36*
X106599293Y-67517877D02*
X106622651Y-67524962D01*
X106644175Y-67536467D01*
X106663046Y-67551954D01*
X106678533Y-67570825D01*
X106690038Y-67592349D01*
X106697123Y-67615707D01*
X106700000Y-67644917D01*
X106700000Y-68085083D01*
X106697123Y-68114293D01*
X106690038Y-68137651D01*
X106678533Y-68159175D01*
X106663046Y-68178046D01*
X106644175Y-68193533D01*
X106622651Y-68205038D01*
X106599293Y-68212123D01*
X106570083Y-68215000D01*
X105129917Y-68215000D01*
X105100707Y-68212123D01*
X105077349Y-68205038D01*
X105055825Y-68193533D01*
X105036954Y-68178046D01*
X105021467Y-68159175D01*
X105009962Y-68137651D01*
X105002877Y-68114293D01*
X105000000Y-68085083D01*
X105000000Y-67644917D01*
X105002877Y-67615707D01*
X105009962Y-67592349D01*
X105021467Y-67570825D01*
X105036954Y-67551954D01*
X105055825Y-67536467D01*
X105077349Y-67524962D01*
X105100707Y-67517877D01*
X105129917Y-67515000D01*
X106570083Y-67515000D01*
X106599293Y-67517877D01*
X106599293Y-67517877D01*
G37*
G36*
X111899293Y-67517877D02*
X111922651Y-67524962D01*
X111944175Y-67536467D01*
X111963046Y-67551954D01*
X111978533Y-67570825D01*
X111990038Y-67592349D01*
X111997123Y-67615707D01*
X112000000Y-67644917D01*
X112000000Y-68085083D01*
X111997123Y-68114293D01*
X111990038Y-68137651D01*
X111978533Y-68159175D01*
X111963046Y-68178046D01*
X111944175Y-68193533D01*
X111922651Y-68205038D01*
X111899293Y-68212123D01*
X111870083Y-68215000D01*
X110429917Y-68215000D01*
X110400707Y-68212123D01*
X110377349Y-68205038D01*
X110355825Y-68193533D01*
X110336954Y-68178046D01*
X110321467Y-68159175D01*
X110309962Y-68137651D01*
X110302877Y-68114293D01*
X110300000Y-68085083D01*
X110300000Y-67644917D01*
X110302877Y-67615707D01*
X110309962Y-67592349D01*
X110321467Y-67570825D01*
X110336954Y-67551954D01*
X110355825Y-67536467D01*
X110377349Y-67524962D01*
X110400707Y-67517877D01*
X110429917Y-67515000D01*
X111870083Y-67515000D01*
X111899293Y-67517877D01*
X111899293Y-67517877D01*
G37*
G36*
X102400000Y-67820000D02*
X100600000Y-67820000D01*
X100600000Y-66020000D01*
X102400000Y-66020000D01*
X102400000Y-67820000D01*
X102400000Y-67820000D01*
G37*
G36*
X111899293Y-66247877D02*
X111922651Y-66254962D01*
X111944175Y-66266467D01*
X111963046Y-66281954D01*
X111978533Y-66300825D01*
X111990038Y-66322349D01*
X111997123Y-66345707D01*
X112000000Y-66374917D01*
X112000000Y-66815083D01*
X111997123Y-66844293D01*
X111990038Y-66867651D01*
X111978533Y-66889175D01*
X111963046Y-66908046D01*
X111944175Y-66923533D01*
X111922651Y-66935038D01*
X111899293Y-66942123D01*
X111870083Y-66945000D01*
X110429917Y-66945000D01*
X110400707Y-66942123D01*
X110377349Y-66935038D01*
X110355825Y-66923533D01*
X110336954Y-66908046D01*
X110321467Y-66889175D01*
X110309962Y-66867651D01*
X110302877Y-66844293D01*
X110300000Y-66815083D01*
X110300000Y-66374917D01*
X110302877Y-66345707D01*
X110309962Y-66322349D01*
X110321467Y-66300825D01*
X110336954Y-66281954D01*
X110355825Y-66266467D01*
X110377349Y-66254962D01*
X110400707Y-66247877D01*
X110429917Y-66245000D01*
X111870083Y-66245000D01*
X111899293Y-66247877D01*
X111899293Y-66247877D01*
G37*
G36*
X106599293Y-66247877D02*
X106622651Y-66254962D01*
X106644175Y-66266467D01*
X106663046Y-66281954D01*
X106678533Y-66300825D01*
X106690038Y-66322349D01*
X106697123Y-66345707D01*
X106700000Y-66374917D01*
X106700000Y-66815083D01*
X106697123Y-66844293D01*
X106690038Y-66867651D01*
X106678533Y-66889175D01*
X106663046Y-66908046D01*
X106644175Y-66923533D01*
X106622651Y-66935038D01*
X106599293Y-66942123D01*
X106570083Y-66945000D01*
X105129917Y-66945000D01*
X105100707Y-66942123D01*
X105077349Y-66935038D01*
X105055825Y-66923533D01*
X105036954Y-66908046D01*
X105021467Y-66889175D01*
X105009962Y-66867651D01*
X105002877Y-66844293D01*
X105000000Y-66815083D01*
X105000000Y-66374917D01*
X105002877Y-66345707D01*
X105009962Y-66322349D01*
X105021467Y-66300825D01*
X105036954Y-66281954D01*
X105055825Y-66266467D01*
X105077349Y-66254962D01*
X105100707Y-66247877D01*
X105129917Y-66245000D01*
X106570083Y-66245000D01*
X106599293Y-66247877D01*
X106599293Y-66247877D01*
G37*
G36*
X135850000Y-66850000D02*
X133150000Y-66850000D01*
X133150000Y-64150000D01*
X135850000Y-64150000D01*
X135850000Y-66850000D01*
X135850000Y-66850000D01*
G37*
G36*
X134893778Y-59121879D02*
X135139465Y-59223646D01*
X135360573Y-59371385D01*
X135548615Y-59559427D01*
X135696354Y-59780535D01*
X135798121Y-60026222D01*
X135850000Y-60287034D01*
X135850000Y-60552966D01*
X135798121Y-60813778D01*
X135696354Y-61059465D01*
X135548615Y-61280573D01*
X135360573Y-61468615D01*
X135139465Y-61616354D01*
X134893778Y-61718121D01*
X134632966Y-61770000D01*
X134367034Y-61770000D01*
X134106222Y-61718121D01*
X133860535Y-61616354D01*
X133639427Y-61468615D01*
X133451385Y-61280573D01*
X133303646Y-61059465D01*
X133201879Y-60813778D01*
X133150000Y-60552966D01*
X133150000Y-60287034D01*
X133201879Y-60026222D01*
X133303646Y-59780535D01*
X133451385Y-59559427D01*
X133639427Y-59371385D01*
X133860535Y-59223646D01*
X134106222Y-59121879D01*
X134367034Y-59070000D01*
X134632966Y-59070000D01*
X134893778Y-59121879D01*
X134893778Y-59121879D01*
G37*
G36*
X106599293Y-59557877D02*
X106622651Y-59564962D01*
X106644175Y-59576467D01*
X106663046Y-59591954D01*
X106678533Y-59610825D01*
X106690038Y-59632349D01*
X106697123Y-59655707D01*
X106700000Y-59684917D01*
X106700000Y-60125083D01*
X106697123Y-60154293D01*
X106690038Y-60177651D01*
X106678533Y-60199175D01*
X106663046Y-60218046D01*
X106644175Y-60233533D01*
X106622651Y-60245038D01*
X106599293Y-60252123D01*
X106570083Y-60255000D01*
X105129917Y-60255000D01*
X105100707Y-60252123D01*
X105077349Y-60245038D01*
X105055825Y-60233533D01*
X105036954Y-60218046D01*
X105021467Y-60199175D01*
X105009962Y-60177651D01*
X105002877Y-60154293D01*
X105000000Y-60125083D01*
X105000000Y-59684917D01*
X105002877Y-59655707D01*
X105009962Y-59632349D01*
X105021467Y-59610825D01*
X105036954Y-59591954D01*
X105055825Y-59576467D01*
X105077349Y-59564962D01*
X105100707Y-59557877D01*
X105129917Y-59555000D01*
X106570083Y-59555000D01*
X106599293Y-59557877D01*
X106599293Y-59557877D01*
G37*
G36*
X111899293Y-59557877D02*
X111922651Y-59564962D01*
X111944175Y-59576467D01*
X111963046Y-59591954D01*
X111978533Y-59610825D01*
X111990038Y-59632349D01*
X111997123Y-59655707D01*
X112000000Y-59684917D01*
X112000000Y-60125083D01*
X111997123Y-60154293D01*
X111990038Y-60177651D01*
X111978533Y-60199175D01*
X111963046Y-60218046D01*
X111944175Y-60233533D01*
X111922651Y-60245038D01*
X111899293Y-60252123D01*
X111870083Y-60255000D01*
X110429917Y-60255000D01*
X110400707Y-60252123D01*
X110377349Y-60245038D01*
X110355825Y-60233533D01*
X110336954Y-60218046D01*
X110321467Y-60199175D01*
X110309962Y-60177651D01*
X110302877Y-60154293D01*
X110300000Y-60125083D01*
X110300000Y-59684917D01*
X110302877Y-59655707D01*
X110309962Y-59632349D01*
X110321467Y-59610825D01*
X110336954Y-59591954D01*
X110355825Y-59576467D01*
X110377349Y-59564962D01*
X110400707Y-59557877D01*
X110429917Y-59555000D01*
X111870083Y-59555000D01*
X111899293Y-59557877D01*
X111899293Y-59557877D01*
G37*
G36*
X109609120Y-56403954D02*
X109643007Y-56414234D01*
X109674237Y-56430927D01*
X109701609Y-56453391D01*
X109724073Y-56480763D01*
X109740766Y-56511993D01*
X109751046Y-56545880D01*
X109755000Y-56586027D01*
X109755000Y-59413973D01*
X109751046Y-59454120D01*
X109740766Y-59488007D01*
X109724073Y-59519237D01*
X109701609Y-59546609D01*
X109674237Y-59569073D01*
X109643007Y-59585766D01*
X109609120Y-59596046D01*
X109568973Y-59600000D01*
X107431027Y-59600000D01*
X107390880Y-59596046D01*
X107356993Y-59585766D01*
X107325763Y-59569073D01*
X107298391Y-59546609D01*
X107275927Y-59519237D01*
X107259234Y-59488007D01*
X107248954Y-59454120D01*
X107245000Y-59413973D01*
X107245000Y-56586027D01*
X107248954Y-56545880D01*
X107259234Y-56511993D01*
X107275927Y-56480763D01*
X107298391Y-56453391D01*
X107325763Y-56430927D01*
X107356993Y-56414234D01*
X107390880Y-56403954D01*
X107431027Y-56400000D01*
X109568973Y-56400000D01*
X109609120Y-56403954D01*
X109609120Y-56403954D01*
G37*
G36*
X111899293Y-58287877D02*
X111922651Y-58294962D01*
X111944175Y-58306467D01*
X111963046Y-58321954D01*
X111978533Y-58340825D01*
X111990038Y-58362349D01*
X111997123Y-58385707D01*
X112000000Y-58414917D01*
X112000000Y-58855083D01*
X111997123Y-58884293D01*
X111990038Y-58907651D01*
X111978533Y-58929175D01*
X111963046Y-58948046D01*
X111944175Y-58963533D01*
X111922651Y-58975038D01*
X111899293Y-58982123D01*
X111870083Y-58985000D01*
X110429917Y-58985000D01*
X110400707Y-58982123D01*
X110377349Y-58975038D01*
X110355825Y-58963533D01*
X110336954Y-58948046D01*
X110321467Y-58929175D01*
X110309962Y-58907651D01*
X110302877Y-58884293D01*
X110300000Y-58855083D01*
X110300000Y-58414917D01*
X110302877Y-58385707D01*
X110309962Y-58362349D01*
X110321467Y-58340825D01*
X110336954Y-58321954D01*
X110355825Y-58306467D01*
X110377349Y-58294962D01*
X110400707Y-58287877D01*
X110429917Y-58285000D01*
X111870083Y-58285000D01*
X111899293Y-58287877D01*
X111899293Y-58287877D01*
G37*
G36*
X106599293Y-58287877D02*
X106622651Y-58294962D01*
X106644175Y-58306467D01*
X106663046Y-58321954D01*
X106678533Y-58340825D01*
X106690038Y-58362349D01*
X106697123Y-58385707D01*
X106700000Y-58414917D01*
X106700000Y-58855083D01*
X106697123Y-58884293D01*
X106690038Y-58907651D01*
X106678533Y-58929175D01*
X106663046Y-58948046D01*
X106644175Y-58963533D01*
X106622651Y-58975038D01*
X106599293Y-58982123D01*
X106570083Y-58985000D01*
X105129917Y-58985000D01*
X105100707Y-58982123D01*
X105077349Y-58975038D01*
X105055825Y-58963533D01*
X105036954Y-58948046D01*
X105021467Y-58929175D01*
X105009962Y-58907651D01*
X105002877Y-58884293D01*
X105000000Y-58855083D01*
X105000000Y-58414917D01*
X105002877Y-58385707D01*
X105009962Y-58362349D01*
X105021467Y-58340825D01*
X105036954Y-58321954D01*
X105055825Y-58306467D01*
X105077349Y-58294962D01*
X105100707Y-58287877D01*
X105129917Y-58285000D01*
X106570083Y-58285000D01*
X106599293Y-58287877D01*
X106599293Y-58287877D01*
G37*
G36*
X128900000Y-58700000D02*
X124000000Y-58700000D01*
X124000000Y-53800000D01*
X128900000Y-53800000D01*
X128900000Y-58700000D01*
X128900000Y-58700000D01*
G37*
G36*
X118000000Y-58700000D02*
X113100000Y-58700000D01*
X113100000Y-53800000D01*
X118000000Y-53800000D01*
X118000000Y-58700000D01*
X118000000Y-58700000D01*
G37*
G36*
X111899293Y-57017877D02*
X111922651Y-57024962D01*
X111944175Y-57036467D01*
X111963046Y-57051954D01*
X111978533Y-57070825D01*
X111990038Y-57092349D01*
X111997123Y-57115707D01*
X112000000Y-57144917D01*
X112000000Y-57585083D01*
X111997123Y-57614293D01*
X111990038Y-57637651D01*
X111978533Y-57659175D01*
X111963046Y-57678046D01*
X111944175Y-57693533D01*
X111922651Y-57705038D01*
X111899293Y-57712123D01*
X111870083Y-57715000D01*
X110429917Y-57715000D01*
X110400707Y-57712123D01*
X110377349Y-57705038D01*
X110355825Y-57693533D01*
X110336954Y-57678046D01*
X110321467Y-57659175D01*
X110309962Y-57637651D01*
X110302877Y-57614293D01*
X110300000Y-57585083D01*
X110300000Y-57144917D01*
X110302877Y-57115707D01*
X110309962Y-57092349D01*
X110321467Y-57070825D01*
X110336954Y-57051954D01*
X110355825Y-57036467D01*
X110377349Y-57024962D01*
X110400707Y-57017877D01*
X110429917Y-57015000D01*
X111870083Y-57015000D01*
X111899293Y-57017877D01*
X111899293Y-57017877D01*
G37*
G36*
X106599293Y-57017877D02*
X106622651Y-57024962D01*
X106644175Y-57036467D01*
X106663046Y-57051954D01*
X106678533Y-57070825D01*
X106690038Y-57092349D01*
X106697123Y-57115707D01*
X106700000Y-57144917D01*
X106700000Y-57585083D01*
X106697123Y-57614293D01*
X106690038Y-57637651D01*
X106678533Y-57659175D01*
X106663046Y-57678046D01*
X106644175Y-57693533D01*
X106622651Y-57705038D01*
X106599293Y-57712123D01*
X106570083Y-57715000D01*
X105129917Y-57715000D01*
X105100707Y-57712123D01*
X105077349Y-57705038D01*
X105055825Y-57693533D01*
X105036954Y-57678046D01*
X105021467Y-57659175D01*
X105009962Y-57637651D01*
X105002877Y-57614293D01*
X105000000Y-57585083D01*
X105000000Y-57144917D01*
X105002877Y-57115707D01*
X105009962Y-57092349D01*
X105021467Y-57070825D01*
X105036954Y-57051954D01*
X105055825Y-57036467D01*
X105077349Y-57024962D01*
X105100707Y-57017877D01*
X105129917Y-57015000D01*
X106570083Y-57015000D01*
X106599293Y-57017877D01*
X106599293Y-57017877D01*
G37*
G36*
X111899293Y-55747877D02*
X111922651Y-55754962D01*
X111944175Y-55766467D01*
X111963046Y-55781954D01*
X111978533Y-55800825D01*
X111990038Y-55822349D01*
X111997123Y-55845707D01*
X112000000Y-55874917D01*
X112000000Y-56315083D01*
X111997123Y-56344293D01*
X111990038Y-56367651D01*
X111978533Y-56389175D01*
X111963046Y-56408046D01*
X111944175Y-56423533D01*
X111922651Y-56435038D01*
X111899293Y-56442123D01*
X111870083Y-56445000D01*
X110429917Y-56445000D01*
X110400707Y-56442123D01*
X110377349Y-56435038D01*
X110355825Y-56423533D01*
X110336954Y-56408046D01*
X110321467Y-56389175D01*
X110309962Y-56367651D01*
X110302877Y-56344293D01*
X110300000Y-56315083D01*
X110300000Y-55874917D01*
X110302877Y-55845707D01*
X110309962Y-55822349D01*
X110321467Y-55800825D01*
X110336954Y-55781954D01*
X110355825Y-55766467D01*
X110377349Y-55754962D01*
X110400707Y-55747877D01*
X110429917Y-55745000D01*
X111870083Y-55745000D01*
X111899293Y-55747877D01*
X111899293Y-55747877D01*
G37*
G36*
X106599293Y-55747877D02*
X106622651Y-55754962D01*
X106644175Y-55766467D01*
X106663046Y-55781954D01*
X106678533Y-55800825D01*
X106690038Y-55822349D01*
X106697123Y-55845707D01*
X106700000Y-55874917D01*
X106700000Y-56315083D01*
X106697123Y-56344293D01*
X106690038Y-56367651D01*
X106678533Y-56389175D01*
X106663046Y-56408046D01*
X106644175Y-56423533D01*
X106622651Y-56435038D01*
X106599293Y-56442123D01*
X106570083Y-56445000D01*
X105129917Y-56445000D01*
X105100707Y-56442123D01*
X105077349Y-56435038D01*
X105055825Y-56423533D01*
X105036954Y-56408046D01*
X105021467Y-56389175D01*
X105009962Y-56367651D01*
X105002877Y-56344293D01*
X105000000Y-56315083D01*
X105000000Y-55874917D01*
X105002877Y-55845707D01*
X105009962Y-55822349D01*
X105021467Y-55800825D01*
X105036954Y-55781954D01*
X105055825Y-55766467D01*
X105077349Y-55754962D01*
X105100707Y-55747877D01*
X105129917Y-55745000D01*
X106570083Y-55745000D01*
X106599293Y-55747877D01*
X106599293Y-55747877D01*
G37*
G36*
X132966429Y-54613022D02*
X133136081Y-54664486D01*
X133292434Y-54748058D01*
X133429475Y-54860525D01*
X133541942Y-54997566D01*
X133625514Y-55153919D01*
X133676978Y-55323571D01*
X133694355Y-55500000D01*
X133676978Y-55676429D01*
X133625514Y-55846081D01*
X133541942Y-56002434D01*
X133429475Y-56139475D01*
X133292434Y-56251942D01*
X133136081Y-56335514D01*
X132966429Y-56386978D01*
X132834212Y-56400000D01*
X132745788Y-56400000D01*
X132613571Y-56386978D01*
X132443919Y-56335514D01*
X132287566Y-56251942D01*
X132150525Y-56139475D01*
X132038058Y-56002434D01*
X131954486Y-55846081D01*
X131903022Y-55676429D01*
X131885645Y-55500000D01*
X131903022Y-55323571D01*
X131954486Y-55153919D01*
X132038058Y-54997566D01*
X132150525Y-54860525D01*
X132287566Y-54748058D01*
X132443919Y-54664486D01*
X132613571Y-54613022D01*
X132745788Y-54600000D01*
X132834212Y-54600000D01*
X132966429Y-54613022D01*
X132966429Y-54613022D01*
G37*
G36*
X131150000Y-56400000D02*
X129350000Y-56400000D01*
X129350000Y-54600000D01*
X131150000Y-54600000D01*
X131150000Y-56400000D01*
X131150000Y-56400000D01*
G37*
G36*
X102993807Y-51297995D02*
X102993809Y-51297996D01*
X102993810Y-51297996D01*
X103457878Y-51490220D01*
X103875530Y-51769286D01*
X104230714Y-52124470D01*
X104230715Y-52124472D01*
X104509780Y-52542122D01*
X104702004Y-53006190D01*
X104800000Y-53498849D01*
X104800000Y-54001151D01*
X104702004Y-54493810D01*
X104652624Y-54613023D01*
X104509780Y-54957878D01*
X104230714Y-55375530D01*
X103875530Y-55730714D01*
X103702871Y-55846081D01*
X103457878Y-56009780D01*
X102993810Y-56202004D01*
X102993809Y-56202004D01*
X102993807Y-56202005D01*
X102501153Y-56300000D01*
X101998847Y-56300000D01*
X101506193Y-56202005D01*
X101506191Y-56202004D01*
X101506190Y-56202004D01*
X101042122Y-56009780D01*
X100797129Y-55846081D01*
X100624470Y-55730714D01*
X100269286Y-55375530D01*
X99990220Y-54957878D01*
X99847376Y-54613023D01*
X99797996Y-54493810D01*
X99700000Y-54001151D01*
X99700000Y-53498849D01*
X99797996Y-53006190D01*
X99990220Y-52542122D01*
X100269285Y-52124472D01*
X100269286Y-52124470D01*
X100624470Y-51769286D01*
X101042122Y-51490220D01*
X101506190Y-51297996D01*
X101506191Y-51297996D01*
X101506193Y-51297995D01*
X101998847Y-51200000D01*
X102501153Y-51200000D01*
X102993807Y-51297995D01*
X102993807Y-51297995D01*
G37*
M02*
